<?xml version="1.0" standalone="no"?>
<!DOCTYPE svg PUBLIC "-//W3C//DTD SVG 20010904//EN"
 "http://www.w3.org/TR/2001/REC-SVG-20010904/DTD/svg10.dtd">
<svg version="1.0" xmlns="http://www.w3.org/2000/svg"
 width="64.000000pt" height="64.000000pt" viewBox="0 0 64.000000 64.000000"
 preserveAspectRatio="xMidYMid meet">

<g transform="translate(0.000000,64.000000) scale(0.100000,-0.100000)"
fill="#000000" stroke="none">
<path d="M210 603 c-63 -23 -151 -113 -173 -177 -40 -117 -14 -231 72 -317 64
-64 124 -89 211 -89 87 0 147 25 211 89 86 86 112 200 72 317 -23 67 -110 154
-177 177 -61 21 -156 21 -216 0z m154 -24 c52 -41 23 -122 -44 -122 -67 0 -96
81 -44 122 15 12 34 21 44 21 10 0 29 -9 44 -21z m-3 -180 c29 -30 31 -49 4
-49 -7 0 -16 7 -19 16 -7 19 -51 15 -51 -5 0 -8 15 -19 35 -24 45 -11 60 -24
60 -51 0 -20 -52 -76 -70 -76 -14 0 -70 54 -70 67 0 18 37 16 44 -3 7 -19 51
-15 51 5 0 8 -18 20 -40 28 -63 22 -70 46 -27 92 35 38 46 38 83 0z m-239 -55
c2 -52 7 -69 21 -78 29 -17 47 17 47 87 0 50 2 58 18 55 14 -3 17 -14 16 -72
-1 -59 -4 -72 -23 -88 -34 -27 -75 -23 -100 8 -16 21 -21 41 -21 90 0 57 2 64
20 64 17 0 19 -8 22 -66z m417 40 c67 -56 20 -154 -73 -154 l-46 0 0 90 0 90
44 0 c33 0 52 -7 75 -26z"/>
<path d="M293 554 c-4 -11 2 -23 18 -36 l24 -19 -24 6 c-17 5 -22 4 -19 -6 3
-8 16 -14 29 -14 33 0 38 37 7 54 l-23 12 23 -5 c15 -3 22 0 19 7 -6 20 -46
20 -54 1z"/>
<path d="M457 373 c-4 -3 -7 -28 -7 -55 0 -56 16 -69 55 -44 33 21 34 69 3 90
-24 17 -41 20 -51 9z"/>
</g>
</svg>
